<?xml version="1.0" encoding="UTF-8"?>
<svg xmlns="http://www.w3.org/2000/svg" style="display: none;">
  <!-- "Discourse Table" is a Discourse derivative of https://fontawesome.com/v6/icons/table-list?f=classic&s=solid  -->
  <symbol id="discourse-table" viewBox="0 0 512 512">
    <g>
      <g id="Layer_1">
        <path d="M0,96C0,60.7,28.7,32,64,32h384c35.3,0,64,28.7,64,64v320c0,35.3-28.7,64-64,64H64c-35.3,0-64-28.7-64-64V96ZM448,96H64v64h384v-64ZM448,224H64v64h384v-64ZM448,352H64v64h384v-64Z"/>
      </g>
    </g>
  </symbol>

  <!-- "Discourse Table Sparkles" is a Discourse derivative of https://fontawesome.com/v6/icons/table-list?f=classic&s=solid  -->
  <symbol id="discourse-table-sparkles" viewBox="0 0 512 512">
    <path d="M448 309.64V413H64V290h190c12.23 0 18.46-14.71 9.94-23.48-7.56-7.78-14.48-16.2-20.66-25.16-5.36-7.77-14.24-12.36-23.69-12.36H64V93h130c10.65 0 20.14-6.92 23.18-17.12a193.4 193.4 0 0 1 9.74-25.76c4.56-9.86-2.77-21.12-13.63-21.12H64C28.65 29 0 57.65 0 93v320c0 35.35 28.65 64 64 64h384c35.35 0 64-28.65 64-64V263.8c0-9.16-10.7-14.14-17.7-8.25a194.056 194.056 0 0 1-25.76 18.32c-12.66 7.53-20.53 21.05-20.53 35.77Z"/><path d="M247.46 122.15c-6.45 2.44-10.75 8.6-10.75 15.49s4.3 13.05 10.75 15.49l81.01 30.4 30.4 81.01c2.44 6.45 8.6 10.75 15.49 10.75s13.05-4.3 15.49-10.75l30.4-81.01 81.01-30.4c6.45-2.44 10.75-8.6 10.75-15.49s-4.3-13.05-10.75-15.49l-81.01-30.4-30.4-81.01c-2.44-6.45-8.6-10.75-15.49-10.75s-13.05 4.3-15.49 10.75l-30.4 81.01-81.01 30.4Z"/>
  </symbol>

  <!-- "Discourse Spaceship Operator" is a Discourse derivative of https://fontawesome.com/icons/equals?f=classic&s=solid and https://fontawesome.com/icons/less-than?f=classic&s=solid -->
  <symbol id="discourse-spaceship-operator"  viewBox="0 0 448 512">
    <path d="M132.3 195.8c2.7 5.5.5 12.2-5 14.9L36 256.4l91.3 45.7c5.5 2.7 7.7 9.4 5 14.9s-9.4 7.7-14.9 5L6.2 266.4c-3.8-1.9-6.2-5.7-6.2-9.9s2.4-8.1 6.2-9.9L117.5 191c5.5-2.7 12.2-.5 14.9 5ZM315.7 317c-2.7-5.5-.5-12.2 5-14.9l91.3-45.7-91.3-45.7c-5.5-2.7-7.7-9.4-5-14.9s9.4-7.7 14.9-5l111.3 55.6c3.8 1.9 6.2 5.7 6.2 9.9s-2.4 8.1-6.2 9.9l-111.3 55.6c-5.5 2.7-12.2.5-14.9-5ZM169.2 211.5c-5.6 0-10.1 5.3-10.1 11.8s4.5 11.8 10.1 11.8h110.9c5.6 0 10.1-5.3 10.1-11.8s-4.5-11.8-10.1-11.8H169.2Zm0 65.9c-5.6 0-10.1 5.3-10.1 11.8s4.5 11.8 10.1 11.8h110.9c5.6 0 10.1-5.3 10.1-11.8s-4.5-11.8-10.1-11.8H169.2Z"/>
  </symbol>

  <!-- "Discourse Negative Inner Product" is a Discourse derivative of https://fontawesome.com/icons/hashtag?f=classic&s=solid and https://fontawesome.com/icons/less-than?f=classic&s=solid -->
  <symbol id="discourse-negative-inner-product" viewBox="0 0 448 512">
   <path d="M132.3 195.8c2.7 5.5.5 12.2-5 14.9L36 256.4l91.3 45.7c5.5 2.7 7.7 9.4 5 14.9s-9.4 7.7-14.9 5L6.2 266.4c-3.8-1.9-6.2-5.7-6.2-9.9s2.4-8.1 6.2-9.9L117.5 191c5.5-2.7 12.2-.5 14.9 5ZM315.7 317c-2.7-5.5-.5-12.2 5-14.9l91.3-45.7-91.3-45.7c-5.5-2.7-7.7-9.4-5-14.9s9.4-7.7 14.9-5l111.3 55.6c3.8 1.9 6.2 5.7 6.2 9.9s-2.4 8.1-6.2 9.9l-111.3 55.6c-5.5 2.7-12.2.5-14.9-5ZM211.9 187.6c5.2.9 8.8 5.8 7.9 11.1l-3 17.7h28.6l3.5-20.9c.9-5.2 5.8-8.8 11.1-7.9 5.2.9 8.8 5.8 7.9 11.1l-2.9 17.7h17.5c5.3 0 9.6 4.3 9.6 9.6s-4.3 9.6-9.6 9.6h-20.7l-6.4 38.5h17.5c5.3 0 9.6 4.3 9.6 9.6s-4.3 9.6-9.6 9.6h-20.7l-3.5 20.9c-.9 5.2-5.8 8.8-11.1 7.9s-8.8-5.8-7.9-11.1l3-17.7h-28.6l-3.5 20.9c-.9 5.2-5.8 8.8-11.1 7.9-5.2-.9-8.8-5.8-7.9-11.1l2.9-17.7H167c-5.3 0-9.6-4.3-9.6-9.6s4.3-9.6 9.6-9.6h20.7l6.4-38.5h-17.5c-5.3 0-9.6-4.3-9.6-9.6s4.3-9.6 9.6-9.6h20.7l3.5-20.9c.9-5.2 5.8-8.8 11.1-7.9Zm1.7 48-6.4 38.5h28.6l6.4-38.5h-28.6Z"/>
  </symbol>
</svg>