<?xml version="1.0" encoding="UTF-8"?>
<svg xmlns="http://www.w3.org/2000/svg" style="display: none;">
  <!-- "Discourse Table" is a Discourse derivative of https://fontawesome.com/v6/icons/table-list?f=classic&s=solid  -->
  <symbol id="discourse-table" viewBox="0 0 512 512">
    <g>
      <g id="Layer_1">
        <path d="M0,96C0,60.7,28.7,32,64,32h384c35.3,0,64,28.7,64,64v320c0,35.3-28.7,64-64,64H64c-35.3,0-64-28.7-64-64V96ZM448,96H64v64h384v-64ZM448,224H64v64h384v-64ZM448,352H64v64h384v-64Z"/>
      </g>
    </g>
  </symbol>

  <!-- "Discourse Table Sparkles" is a Discourse derivative of https://fontawesome.com/v6/icons/table-list?f=classic&s=solid  -->
  <symbol id="discourse-table-sparkles" viewBox="0 0 512 512">
    <path d="M448 309.64V413H64V290h190c12.23 0 18.46-14.71 9.94-23.48-7.56-7.78-14.48-16.2-20.66-25.16-5.36-7.77-14.24-12.36-23.69-12.36H64V93h130c10.65 0 20.14-6.92 23.18-17.12a193.4 193.4 0 0 1 9.74-25.76c4.56-9.86-2.77-21.12-13.63-21.12H64C28.65 29 0 57.65 0 93v320c0 35.35 28.65 64 64 64h384c35.35 0 64-28.65 64-64V263.8c0-9.16-10.7-14.14-17.7-8.25a194.056 194.056 0 0 1-25.76 18.32c-12.66 7.53-20.53 21.05-20.53 35.77Z"/><path d="M247.46 122.15c-6.45 2.44-10.75 8.6-10.75 15.49s4.3 13.05 10.75 15.49l81.01 30.4 30.4 81.01c2.44 6.45 8.6 10.75 15.49 10.75s13.05-4.3 15.49-10.75l30.4-81.01 81.01-30.4c6.45-2.44 10.75-8.6 10.75-15.49s-4.3-13.05-10.75-15.49l-81.01-30.4-30.4-81.01c-2.44-6.45-8.6-10.75-15.49-10.75s-13.05 4.3-15.49 10.75l-30.4 81.01-81.01 30.4Z"/>
  </symbol>
</svg>
